#!OML:ASF E:/inclinewalkrobotboard/Project1/Captureday1/Session1/subject1.ASF
:FULLY-SPECIFIED
:DEGREES
88
root 0 0 0 -10.06237198880875 -17.226282629153808 -2.701515687475915
lowerback 2.7340951664288644 0.6533306338280663 -3.6597720916184455
upperback -1.7890236839498557 0.6406967590314121 -1.7178041925187224
thorax -3.3354907560334444 0.34409457503192653 0.31965771502418927
lowerneck -16.186916685391004 -5.26487815797101 -9.019942852981622
upperneck 3.3471612381134417 -7.081392284461517 9.774458228662803
head 4.6554747775200935 -3.037649081987403 4.065628154964631
rclavicle -1.0317871278363972E-14 4.401524919955082E-16
rhumerus 4.607809863760139 -12.648046768659023 -66.72857724869297
rradius 18.34187698787619
rwrist 57.644260664896976
rhand -7.371346305773136 21.657008091085764
rfingers 7.125019999999915
rthumb 18.51804727936218 -8.04373143535637
lclavicle -7.168370484293286E-15 7.445951409220857E-15
lhumerus -27.641085922111145 -2.5582804614607006 82.20945499980144
lradius 43.50679459402932
lwrist -35.67034455821033
lhand -7.954896163215363 15.285154517470259
lfingers 7.038842157167002
lthumb 17.61604732398626 75.83101997960799
rfemur -15.490266455763937 0.6457667623107195 22.532387748647803
rtibia 71.44301672535188
rfoot 9.439454230173848 -2.6249652177657214
rtoes 14.618150614761811
lfemur 7.913794235631189 -2.5538636692217533 -30.666591987538396
ltibia 20.256213662662535
lfoot -20.17353730959327 1.9984492235441564
ltoes 3.1082429412726924
89
root 0 0 0 -11.533431557774442 -24.517708596778363 -1.8393232068360734
lowerback 3.5529853795815116 0.23763198417551246 -3.555969797321416
upperback -1.9135037784830424 0.058967093286706795 -1.390247959378109
thorax -3.8712554044975778 0.049634669094855255 0.6457835015828683
lowerneck -17.638930316367983 -4.606671979595779 -8.699223223389584
upperneck -0.1123144743184703 -6.037879232369907 8.982803817931426
head 3.744740533995723 -2.540577274284337 3.8225221543372676
rclavicle -1.0238134969137936E-14 4.050278432950803E-16
rhumerus 4.566968497055447 -12.762280431429224 -66.61723042535547
rradius 18.225074671640975
rwrist 57.69462938796751
rhand -7.339853175056438 21.68872386176515
rfingers 7.125019999999915
rthumb 18.548710268779352 -8.013168760638134
lclavicle -6.880421429420214E-15 7.0788047045440405E-15
lhumerus -27.13396775097334 -2.840532794726002 81.99161974909069
lradius 42.51371776249695
lwrist -36.19769298888863
lhand -7.953262111240259 15.203163338519582
lfingers 7.036529832889705
lthumb 17.60725261724193 76.82668426958062
rfemur -16.22193451631466 0.5250833352413498 22.499155658198614
rtibia 71.29857139294961
rfoot 8.747625718410674 -2.7978608824014213
rtoes 14.302772502564158
lfemur 9.120139580067194 -2.585478789608225 -30.807722228737347
ltibia 19.956792863896812
lfoot -20.072017470451975 1.644728107487321
ltoes 2.3287734182087574
90
root 0 0 0 -12.326111672850839 -35.49726283229846 -1.4058370990070836
lowerback 4.812637263510728 -0.29117849205169555 -2.9158321100305375
upperback -1.7796281979748803 -0.6623002062973381 -0.7389966795971711
thorax -4.3896912106024155 -0.3187258512913564 1.0213985313803042
lowerneck -18.35269446310536 -3.692557001078887 -8.275920368560644
upperneck -2.2594880978666225 -4.683533373513974 8.829065252224432
head 3.0238090707931944 -1.9159276513192793 3.7849954927887666
rclavicle -1.0022463518394614E-14 2.145928564206237E-16
rhumerus 4.042900904936586 -12.840435820441916 -66.81048147007048
rradius 18.006670320207768
rwrist 57.93063046753119
rhand -7.278568094663127 21.795453471099012
rfingers 7.125019999999912
rthumb 18.60974966564736 -7.905652899117587
lclavicle -6.077920266972463E-15 6.239547819739846E-15
lhumerus -25.9857405893707 -2.7473216330383927 81.20990403052484
lradius 39.782463157131694
lwrist -37.47464783255967
lhand -8.25031557670404 14.967391710951057
lfingers 7.031339064441348
lthumb 17.299752300321675 78.42609724093407
rfemur -17.346861069716397 0.3259384302454098 22.71722361245331
rtibia 70.24082279413074
rfoot 7.390761887416463 -3.023340327856526
rtoes 13.611198572772425
lfemur 10.819757256794519 -2.6156680745230525 -30.958937131581308
ltibia 19.59865058273068
lfoot -19.779816432168225 0.989029167079063
ltoes 1.0143099604955905
91
root 0 0 0 -12.276390975595294 -40.27278737481678 -1.0978876697986304
lowerback 5.11973728547849 -0.526543401500172 -2.5016016000400807
upperback -1.6827779197378416 -0.9546215387089533 -0.4082609451498849
thorax -4.452478256876058 -0.46900010019716126 1.158629447649003
lowerneck -18.2768889866649 -3.324030889108773 -8.127333785377482
upperneck -2.1755054589929603 -4.18638718719944 8.92981353162905
head 2.955762380671402 -1.6932180898753821 3.824585593670003
rclavicle -9.888455696713091E-15 6.244038303779341E-17
rhumerus 3.4919768110343385 -12.769099395548901 -67.11544411030985
rradius 17.92654747080774
rwrist 58.07305271075708
rhand -7.255771176743211 21.843336684120676
rfingers 7.125019999999911
rthumb 18.633053011657875 -7.855874214228603
lclavicle -5.460919518732347E-15 5.715193218279766E-15
lhumerus -25.607466380560357 -2.8249463031150093 80.98168103990444
lradius 38.448212642631425
lwrist -37.981447806443384
lhand -8.457446957920125 14.92712422728138
lfingers 7.030283664944643
lthumb 17.095853710666155 79.06031059771635
rfemur -17.843093049484906 0.23531379830541077 22.989161082037214
rtibia 69.17766339701578
rfoot 6.703645930155815 -3.0649629453059655
rtoes 13.21062116199443
lfemur 11.558342896409522 -2.614059021188189 -30.994699349807448
ltibia 19.481493293927958
lfoot -19.607904660322635 0.6201275167076643
ltoes 0.2493719172134954
92
root 0 0 0 -11.954142060008104 -43.236366485103915 -0.8143708331894459
lowerback 5.125863294794894 -0.7009103417878813 -2.1411852185897633
upperback -1.6339823709421846 -1.1508774866710514 -0.17236140630600405
thorax -4.40441980518423 -0.5690458644970391 1.218764388077392
lowerneck -18.05810439780236 -3.126840552552732 -8.082003101615292
upperneck -1.8000021653913887 -3.9400739888564718 9.015347856932381
head 2.988272512107473 -1.5885887964408618 3.8628037157093837
rclavicle -9.790112432103907E-15 -4.609026800904329E-17
rhumerus 3.049274944823984 -12.666678494906987 -67.37397084865553
rradius 17.892723233422302
rwrist 58.15387483637612
rhand -7.242184794353841 21.862683840157988
rfingers 7.12501999999991
rthumb 18.647037375763706 -7.834774760787184
lclavicle -4.968013400218375E-15 5.374735415691941E-15
lhumerus -25.527452185784078 -2.9963973265224233 80.99563892646796
lradius 37.73373428845917
lwrist -38.189239501081886
lhand -8.643852008137504 14.959485214418791
lfingers 7.030914485750792
lthumb 16.91926761381874 79.25411384867834
rfemur -17.951421802729467 0.2350738183194263 23.281702298122646
rtibia 68.11938032507018
rfoot 6.329885503613941 -3.0258352435656564
rtoes 13.021486669906233
lfemur 12.056996474413646 -2.6093721234750182 -31.00296977995248
ltibia 19.40640466495765
lfoot -19.469085611212098 0.3361586681709694
ltoes -0.35969339413866397
93
root 0 0 0 -11.525021303306493 -45.46279637651847 -0.5883323427699392
lowerback 4.954572187796011 -0.8508935891092746 -1.7998780847557443
upperback -1.629012656633941 -1.3081456506321523 0.019127730620641548
thorax -4.306710309944647 -0.6485152085477763 1.2405199802357543
lowerneck -17.803650192497972 -2.9848194871727953 -8.074615828579711
upperneck -1.3331826736864372 -3.7744224859881332 9.057238322255477
head 3.0555930669130964 -1.5216246708040475 3.888705709670288
rclavicle -9.701273536266773E-15 -1.0673137714337705E-16
rhumerus 2.722609310369756 -12.582267784005287 -67.56919641064374
rradius 17.880523509590738
rwrist 58.195388634271424
rhand -7.237168372150318 21.86180001978584
rfingers 7.1250199999999095
rthumb 18.652286220462784 -7.834088909627209
lclavicle -4.522519684400317E-15 5.24508811757077E-15
lhumerus -25.643011919224133 -3.1459634204997684 81.13884294795496
lradius 37.49751136743421
lwrist -38.22453397078296
lhand -8.812181461917298 15.014502155973153
lfingers 7.032087435640331
lthumb 16.762646142019875 79.15407033554789
rfemur -17.639242135883105 0.34228041481641647 23.608415841116333
rtibia 67.06763542545539
rfoot 6.152384314045207 -2.9329562390372814
rtoes 13.059522957516096
lfemur 12.407312805365711 -2.6118516291614333 -30.996445398932757
ltibia 19.346879359820786
lfoot -19.349824114771284 0.12559901158353437
ltoes -0.8160596063025745
94
root 0 0 0 -11.083090283391535 -47.37941594643206 -0.4135021326165848
lowerback 4.682432494805256 -0.9883078632769031 -1.4783815856414817
upperback -1.6581884080758589 -1.4474159672296993 0.18265205802396767
thorax -4.190063730769225 -0.718484701474142 1.2439141062926071
lowerneck -17.55068072742957 -2.8480040257707895 -8.077505531634264
upperneck -0.8644181569607223 -3.6164730947645842 9.055413961949416
head 3.127940052174698 -1.4578151296733413 3.9015768134477478
rclavicle -9.630230524903904E-15 -1.4082893731875497E-16
rhumerus 2.4746333880886393 -12.53142987352282 -67.71166478969634
rradius 17.90126156137528
rwrist 58.20510802815791
rhand -7.243186269616638 21.85201958622837
rfingers 7.1250199999999095
rthumb 18.64671623933974 -7.842537808945554
lclavicle -4.186513575636853E-15 5.207493320280145E-15
lhumerus -25.824989061833207 -3.2295733898897154 81.29988689246139
lradius 37.463303052045724
lwrist -38.1944285570968
lhand -8.958772004858671 15.06414892143852
lfingers 7.033166046734465
lthumb 16.627030821242112 78.89384215813203
rfemur -16.987926929363287 0.5539003216263492 23.97591645919121
rtibia 65.89146271499102
rfoot 6.109944995642074 -2.7961111544235884
rtoes 13.280861280581087
lfemur 12.63443869422026 -2.616981814441277 -30.982901028662027
ltibia 19.31613829127182
lfoot -19.248133832761205 -0.023377697014453247
ltoes -1.1247768509691847
95
root 0 0 0 -10.509822425897976 -49.70684205563781 -0.23985903453467888
lowerback 4.174741335201518 -1.1653866396566115 -1.063833180224749
upperback -1.7500817114390004 -1.621913387978779 0.37300238401188446
thorax -4.0109045732840825 -0.8056568071571366 1.2302120462728823
lowerneck -17.214288318370393 -2.628118141407522 -8.081098108015528
upperneck -0.2744784467566017 -3.3536674879561787 8.957497222795524
head 3.2150729455246108 -1.347759881078535 3.890137756925932
rclavicle -9.56121173403168E-15 -1.591572711431229E-16
rhumerus 2.180525450320859 -12.510161256004592 -67.85953341842466
rradius 18.001233013710653
rwrist 58.16600707498429
rhand -7.272808670402624 21.828374071370906
rfingers 7.1250199999999095
rthumb 18.61838896082356 -7.8643162181384945
lclavicle -3.913079339613253E-15 5.241894836642386E-15
lhumerus -26.0877701055768 -3.2249462397002766 81.47791206551322
lradius 37.58117284577297
lwrist -38.09774516302707
lhand -9.151675740641583 15.108294344695576
lfingers 7.034108388290063
lthumb 16.4477738329089 78.48968819889521
rfemur -15.46886174815796 1.0939356558652467 24.6563620949493
rtibia 63.4601585892584
rfoot 6.173098958329859 -2.525324966957456
rtoes 13.910895989185812
lfemur 12.786257749316134 -2.623160118444222 -30.956335787099967
ltibia 19.344875371622116
lfoot -19.114610005840547 -0.15937298863770977
ltoes -1.3397652682618117
